<svg width="250" height="250" version="1.1" viewBox="48 48 92.8 92.8" xmlns="http://www.w3.org/2000/svg">
 <circle cx="94.4" cy="94.4" r="46.4" fill="#006aff" stroke-width=".1"/>
 <path d="m102.86 78.29c0.24-0.05 0.34 0.03 0.49 0.19 0.83 0.92 3.49 4.16 4.21 5.05 0.13 0.16 0.04 0.33-0.07 0.43-5.36 4.18-11.32 10.1-14.65 14.34-0.06 0.09-0.01 0.09 0.05 0.08 5.78-2.5 19.39-6.48 25.51-7.59v-7.76l-24-19.03-23.99 19.02v8.48c7.44-4.42 24.65-11.27 32.45-13.21zm-19.52 32.59a0.39 0.39 0 0 1-0.52-0.08l-4.47-5.33c-0.12-0.15-0.14-0.23 0.02-0.46 3.46-5.07 10.52-12.96 15.02-16.3 0.09-0.05 0.06-0.12-0.04-0.08-4.69 1.53-18.02 7.27-22.95 10.05v18.12h47.99v-17.45c-6.54 1.12-26.13 6.95-35.05 11.53z" fill="#fff" stroke-width=".1"/>
</svg>
