<?xml version="1.0" encoding="UTF-8"?>
<svg width="106px" height="53px" viewBox="0 0 106 53" version="1.1" xmlns="http://www.w3.org/2000/svg" xmlns:xlink="http://www.w3.org/1999/xlink">
    <title>Group 6</title>
    <defs>
        <polygon id="path-1" points="0.0003 0.614 105.04 0.614 105.04 47.6798 0.0003 47.6798"></polygon>
    </defs>
    <g id="Symbols" stroke="none" stroke-width="1" fill="none" fill-rule="evenodd">
        <g id="Group-6">
            <path d="M93.9991,11.0263 L90.1151,11.0263 C89.7731,11.0263 89.3781,11.2813 89.2371,11.5923 L81.1851,29.4493 C81.0441,29.7603 80.8081,30.2683 80.6591,30.5763 L78.7771,34.4703 C78.6271,34.7793 78.3821,35.2813 78.2311,35.5883 L70.2151,51.8283 C70.0641,52.1343 70.2201,52.3853 70.5621,52.3853 L74.4471,52.3853 C74.7881,52.3853 75.1881,52.1323 75.3341,51.8233 L94.3551,11.5883 C94.5011,11.2793 94.3411,11.0263 93.9991,11.0263" id="Fill-1" fill="#00AEFF"></path>
            <g id="Group-5" transform="translate(0.000000, 0.385900)">
                <mask id="mask-2" fill="white">
                    <use xlink:href="#path-1"></use>
                </mask>
                <g id="Clip-4"></g>
                <path d="M43.6763,10.8748 C43.6763,10.8748 41.6993,9.9078 40.1773,9.9078 C37.2483,9.9078 35.8953,11.4298 34.3173,13.5148 L34.2053,13.5148 L34.2053,13.1528 L34.2053,13.1528 L34.2053,11.2628 C34.2053,10.9208 33.9253,10.6408 33.5833,10.6408 L30.3193,10.6408 C29.9773,10.6408 29.6973,10.9208 29.6973,11.2628 L29.6973,36.5018 C29.6973,36.8448 29.9773,37.1248 30.3193,37.1248 L33.5833,37.1248 C33.9253,37.1248 34.2053,36.8448 34.2053,36.5018 L34.2053,34.6128 L34.2053,34.6128 L34.2053,23.8828 C34.2053,20.4458 34.4303,14.0788 39.3893,14.0788 C40.5723,14.0788 41.7323,14.6108 41.7323,14.6108 C42.0433,14.7528 42.4263,14.6208 42.5853,14.3168 L43.9473,11.6988 C44.1053,11.3958 43.9843,11.0258 43.6763,10.8748 L43.6763,10.8748 Z M12.9603,33.6868 C7.3253,33.6868 4.2833,28.7848 4.2833,23.6008 C4.2833,18.6438 7.6633,14.0788 12.9043,14.0788 C18.4833,14.0788 21.8073,18.3608 21.8073,23.6578 C21.8073,29.0098 18.7633,33.6868 12.9603,33.6868 L12.9603,33.6868 Z M13.7503,9.9078 C10.0873,9.9078 6.8193,11.4848 4.6213,14.4158 L4.5093,14.4158 L4.5093,11.2628 C4.5093,10.9208 4.2283,10.6408 3.8863,10.6408 L0.6223,10.6408 C0.2803,10.6408 0.0003,10.9208 0.0003,11.2628 L0.0003,47.0568 C0.0003,47.3988 0.2803,47.6798 0.6223,47.6798 L3.8863,47.6798 C4.2283,47.6798 4.5093,47.3988 4.5093,47.0568 L4.5093,33.4048 L4.6213,33.4048 C6.7613,36.2788 10.0873,37.8568 13.6933,37.8568 C21.6383,37.8568 26.4273,31.4898 26.4273,23.9388 C26.4273,16.6138 21.5253,9.9078 13.7503,9.9078 L13.7503,9.9078 Z M50.2383,0.6138 C48.4903,0.6138 47.0263,2.0798 47.0263,3.8268 C47.0263,5.6298 48.4903,7.0378 50.2383,7.0378 C51.9843,7.0378 53.4503,5.6298 53.4503,3.8268 C53.4503,2.0798 51.9843,0.6138 50.2383,0.6138 L50.2383,0.6138 Z M81.0853,10.6408 L77.2583,10.6408 C76.9163,10.6408 76.5223,10.8968 76.3843,11.2088 L68.9983,27.8778 C68.8603,28.1908 68.6333,28.1908 68.4943,27.8778 L61.1103,11.2088 C60.9713,10.8968 60.5783,10.6408 60.2363,10.6408 L56.3533,10.6408 C56.0113,10.6408 55.8483,10.8948 55.9913,11.2058 L68.4863,38.3068 C68.6293,38.6168 68.8633,38.6168 69.0053,38.3058 L81.4483,11.2058 C81.5903,10.8948 81.4273,10.6408 81.0853,10.6408 L81.0853,10.6408 Z M97.0993,11.5038 L98.2003,11.5038 L98.2003,14.5028 L98.9463,14.5028 L98.9463,11.5038 L100.0463,11.5038 L100.0463,10.8548 L97.0993,10.8548 L97.0993,11.5038 Z M103.7583,10.8548 L102.8733,13.2378 L102.8563,13.2378 L102.0053,10.8548 L100.7153,10.8548 L100.7153,14.5028 L101.4593,14.5028 L101.4593,11.6008 L101.4773,11.6008 L102.5003,14.5028 L103.2193,14.5028 L104.2773,11.6008 L104.2943,11.6008 L104.2943,14.5028 L105.0403,14.5028 L105.0403,10.8548 L103.7583,10.8548 Z M51.8403,10.6408 L48.5763,10.6408 C48.2353,10.6408 47.9543,10.9208 47.9543,11.2628 L47.9543,36.5018 C47.9543,36.8438 48.2353,37.1248 48.5763,37.1248 L51.8403,37.1248 C52.1823,37.1248 52.4623,36.8438 52.4623,36.5018 L52.4623,11.2628 C52.4623,10.9208 52.1823,10.6408 51.8403,10.6408 L51.8403,10.6408 Z" id="Fill-3" fill="#000000" mask="url(#mask-2)"></path>
            </g>
        </g>
    </g>
</svg>